<svg width="755" height="1091" viewBox="0 0 755 1091" fill="none" xmlns="http://www.w3.org/2000/svg">
<mask id="mask0_419_5431" style="mask-type:alpha" maskUnits="userSpaceOnUse" x="0" y="0" width="755" height="1092">
<path d="M0 0H755V1091H0V0Z" fill="#D9D9D9"/>
</mask>
<g mask="url(#mask0_419_5431)">
<path fill-rule="evenodd" clip-rule="evenodd" d="M834.438 507.994L933.572 526.333L947.048 537.324L826.575 635.578L813.1 624.588L914.683 541.739L815.548 523.4L793.523 442.925L691.94 525.773L678.004 514.407L798.477 416.153L812.026 427.204L834.438 507.994Z" fill="#474C5F"/>
<path fill-rule="evenodd" clip-rule="evenodd" d="M796.12 539.369L877.287 553.774L858.571 569.208L789.376 556.914L759.75 581.076L745.056 569.092L774.63 544.973L759.464 488.177L778.384 472.94L796.12 539.369Z" fill="#474C5F"/>
<path fill-rule="evenodd" clip-rule="evenodd" d="M519.599 169.417L504.89 157.421L473.12 183.331L476.015 193.087L487.814 195.315L519.584 169.405L519.599 169.417ZM454.156 89.5022L437.885 102.773L586.456 223.944L602.727 210.673L454.156 89.5022Z" fill="#474C5F"/>
<path fill-rule="evenodd" clip-rule="evenodd" d="M462.02 204.26L561.154 222.599L574.63 233.589L454.157 331.844L440.682 320.853L542.265 238.005L443.13 219.666L421.105 139.19L319.522 222.039L305.586 210.673L426.059 112.418L439.608 123.469L462.02 204.26Z" fill="#474C5F"/>
<path fill-rule="evenodd" clip-rule="evenodd" d="M423.702 235.634L504.869 250.039L486.153 265.473L416.958 253.179L387.332 277.341L372.638 265.357L402.212 241.238L387.046 184.442L405.967 169.205L423.702 235.634Z" fill="#474C5F"/>
<path fill-rule="evenodd" clip-rule="evenodd" d="M589.781 309.167L575.072 321.162L606.842 347.073L618.804 344.712L621.536 335.089L589.766 309.179L589.781 309.167ZM491.795 362.54L508.066 375.81L656.638 254.64L640.366 241.369L491.795 362.54Z" fill="#474C5F"/>
<path fill-rule="evenodd" clip-rule="evenodd" d="M632.502 356.127L654.988 275.276L668.464 264.285L788.936 362.54L775.461 373.53L673.878 290.682L651.392 371.533L552.718 389.496L654.301 472.345L640.365 483.71L519.893 385.456L533.442 374.405L632.502 356.127Z" fill="#474C5F"/>
<path fill-rule="evenodd" clip-rule="evenodd" d="M670.972 387.378L688.634 321.18L707.558 336.444L692.484 392.878L722.11 417.04L707.416 429.024L677.843 404.904L608.204 417.273L589.521 401.842L670.972 387.378Z" fill="#474C5F"/>
<path fill-rule="evenodd" clip-rule="evenodd" d="M681.048 120.257L695.756 108.261L663.986 82.3504L652.024 84.7115L649.293 94.3342L681.062 120.245L681.048 120.257ZM779.033 66.8838L762.762 53.6131L614.19 174.784L630.462 188.054L779.033 66.8838Z" fill="#474C5F"/>
<path fill-rule="evenodd" clip-rule="evenodd" d="M638.326 73.2966L615.84 154.148L602.364 165.138L481.892 66.8838L495.367 55.8936L596.95 138.742L619.436 57.8906L718.11 39.9273L616.527 -42.9211L630.463 -54.2869L750.936 43.9675L737.386 55.0183L638.326 73.2966Z" fill="#474C5F"/>
<path fill-rule="evenodd" clip-rule="evenodd" d="M599.856 42.0464L582.194 108.244L563.27 92.9803L578.344 36.5464L548.718 12.384L563.412 0.400262L592.985 24.5196L662.624 12.1508L681.307 27.582L599.856 42.0464Z" fill="#474C5F"/>
<path fill-rule="evenodd" clip-rule="evenodd" d="M751.227 260.007L765.936 272.003L797.706 246.092L794.811 236.336L783.012 234.109L751.242 260.019L751.227 260.007ZM816.67 339.922L832.941 326.651L684.37 205.48L668.099 218.751L816.67 339.922Z" fill="#474C5F"/>
<path fill-rule="evenodd" clip-rule="evenodd" d="M808.806 225.164L709.672 206.825L696.196 195.835L816.669 97.5803L830.145 108.57L728.562 191.419L827.696 209.758L849.721 290.234L951.304 207.385L965.24 218.751L844.768 317.005L831.218 305.955L808.806 225.164Z" fill="#474C5F"/>
<path fill-rule="evenodd" clip-rule="evenodd" d="M700.856 711.57L715.565 699.574L683.795 673.663L671.833 676.024L669.101 685.647L700.871 711.558L700.856 711.57ZM798.842 658.197L782.57 644.926L633.999 766.097L650.271 779.367L798.842 658.197Z" fill="#474C5F"/>
<path fill-rule="evenodd" clip-rule="evenodd" d="M658.134 664.61L635.648 745.461L622.173 756.451L501.7 658.197L515.176 647.207L616.759 730.055L639.245 649.204L737.918 631.24L636.335 548.392L650.271 537.026L770.744 635.281L757.194 646.331L658.134 664.61Z" fill="#474C5F"/>
<path fill-rule="evenodd" clip-rule="evenodd" d="M619.665 633.359L602.002 699.557L583.079 684.293L598.153 627.859L568.527 603.697L583.22 591.713L612.794 615.832L682.432 603.463L701.116 618.895L619.665 633.359Z" fill="#474C5F"/>
<path fill-rule="evenodd" clip-rule="evenodd" d="M539.409 760.73L524.701 748.734L492.931 774.644L495.826 784.4L507.625 786.628L539.395 760.718L539.409 760.73ZM473.967 680.815L457.695 694.086L606.266 815.257L622.538 801.986L473.967 680.815Z" fill="#474C5F"/>
<path fill-rule="evenodd" clip-rule="evenodd" d="M481.83 795.573L580.965 813.912L594.44 824.902L473.968 923.157L460.492 912.166L562.075 829.318L462.941 810.979L440.915 730.503L339.332 813.352L325.396 801.986L445.869 703.731L459.419 714.782L481.83 795.573Z" fill="#474C5F"/>
<path fill-rule="evenodd" clip-rule="evenodd" d="M443.512 826.948L524.679 841.353L505.964 856.786L436.769 844.492L407.142 868.655L392.449 856.671L422.022 832.552L406.856 775.756L425.777 760.519L443.512 826.948Z" fill="#474C5F"/>
<path fill-rule="evenodd" clip-rule="evenodd" d="M609.589 900.48L594.881 912.476L626.651 938.386L638.613 936.025L641.344 926.403L609.574 900.492L609.589 900.48ZM511.604 953.853L527.875 967.124L676.446 845.953L660.175 832.682L511.604 953.853Z" fill="#474C5F"/>
<path fill-rule="evenodd" clip-rule="evenodd" d="M652.311 947.44L674.797 866.589L688.272 855.599L808.745 953.853L795.27 964.843L693.687 881.995L671.201 962.846L572.527 980.809L674.11 1063.66L660.174 1075.02L539.701 976.769L553.251 965.719L652.311 947.44Z" fill="#474C5F"/>
<path fill-rule="evenodd" clip-rule="evenodd" d="M690.781 978.691L708.443 912.493L727.366 927.757L712.292 984.191L741.919 1008.35L727.225 1020.34L697.651 996.218L628.013 1008.59L609.33 993.155L690.781 978.691Z" fill="#474C5F"/>
<path fill-rule="evenodd" clip-rule="evenodd" d="M771.038 851.32L785.746 863.316L817.516 837.405L814.621 827.649L802.823 825.421L771.053 851.332L771.038 851.32ZM836.48 931.234L852.752 917.964L704.181 796.793L687.909 810.064L836.48 931.234Z" fill="#474C5F"/>
<path fill-rule="evenodd" clip-rule="evenodd" d="M828.617 816.477L729.482 798.138L716.007 787.147L836.48 688.893L849.955 699.883L748.372 782.732L847.507 801.071L869.532 881.546L971.115 798.698L985.051 810.064L864.578 908.318L851.028 897.267L828.617 816.477Z" fill="#474C5F"/>
<path fill-rule="evenodd" clip-rule="evenodd" d="M166.991 456.995L152.283 444.999L120.513 470.91L123.408 480.666L135.207 482.894L166.977 456.983L166.991 456.995ZM101.549 377.081L85.2773 390.351L233.848 511.522L250.12 498.251L101.549 377.081Z" fill="#474C5F"/>
<path fill-rule="evenodd" clip-rule="evenodd" d="M109.413 491.838L208.547 510.177L222.022 521.168L101.55 619.422L88.0742 608.432L189.657 525.583L90.5227 507.244L68.4974 426.769L-33.0855 509.617L-47.0215 498.251L73.4512 399.997L87.0009 411.048L109.413 491.838Z" fill="#474C5F"/>
<path fill-rule="evenodd" clip-rule="evenodd" d="M71.0943 523.213L152.261 537.618L133.546 553.052L64.3505 540.758L34.7244 564.92L20.0307 552.936L49.6042 528.817L34.4383 472.022L53.3591 456.784L71.0943 523.213Z" fill="#474C5F"/>
<path fill-rule="evenodd" clip-rule="evenodd" d="M237.171 596.745L222.463 608.741L254.233 634.652L266.195 632.291L268.926 622.668L237.156 596.757L237.171 596.745ZM139.186 650.118L155.457 663.389L304.028 542.218L287.757 528.948L139.186 650.118Z" fill="#474C5F"/>
<path fill-rule="evenodd" clip-rule="evenodd" d="M279.893 643.706L302.379 562.854L315.854 551.864L436.327 650.118L422.852 661.109L321.269 578.26L298.783 659.112L200.109 677.075L301.692 759.923L287.756 771.289L167.283 673.035L180.833 661.984L279.893 643.706Z" fill="#474C5F"/>
<path fill-rule="evenodd" clip-rule="evenodd" d="M318.363 674.956L336.025 608.759L354.948 624.022L339.874 680.456L369.501 704.619L354.807 716.602L325.233 692.483L255.595 704.852L236.912 689.421L318.363 674.956Z" fill="#474C5F"/>
<path fill-rule="evenodd" clip-rule="evenodd" d="M328.438 407.835L343.147 395.839L311.377 369.929L299.415 372.29L296.683 381.912L328.453 407.823L328.438 407.835ZM426.424 354.462L410.152 341.191L261.581 462.362L277.853 475.633L426.424 354.462Z" fill="#474C5F"/>
<path fill-rule="evenodd" clip-rule="evenodd" d="M285.716 360.875L263.23 441.726L249.755 452.716L129.282 354.462L142.758 343.472L244.341 426.32L266.827 345.469L365.5 327.505L263.917 244.657L277.853 233.291L398.326 331.546L384.776 342.596L285.716 360.875Z" fill="#474C5F"/>
<path fill-rule="evenodd" clip-rule="evenodd" d="M247.247 329.625L229.584 395.822L210.661 380.558L225.735 324.125L196.109 299.962L210.802 287.978L240.376 312.098L310.015 299.729L328.698 315.16L247.247 329.625Z" fill="#474C5F"/>
<path fill-rule="evenodd" clip-rule="evenodd" d="M398.618 547.585L413.327 559.581L445.096 533.67L442.201 523.914L430.403 521.687L398.633 547.597L398.618 547.585ZM464.061 627.5L480.332 614.229L331.761 493.058L315.489 506.329L464.061 627.5Z" fill="#474C5F"/>
<path fill-rule="evenodd" clip-rule="evenodd" d="M456.197 512.742L357.062 494.403L343.587 483.413L464.06 385.158L477.535 396.149L375.952 478.997L475.087 497.336L497.112 577.812L598.695 494.963L612.631 506.329L492.158 604.583L478.609 593.533L456.197 512.742Z" fill="#474C5F"/>
<path fill-rule="evenodd" clip-rule="evenodd" d="M494.515 481.367L413.348 466.962L432.063 451.529L501.259 463.823L530.885 439.66L545.579 451.644L516.005 475.763L531.171 532.559L512.25 547.796L494.515 481.367Z" fill="#474C5F"/>
</g>
</svg>
