<svg width="47" height="36" viewBox="0 0 47 36" fill="none" xmlns="http://www.w3.org/2000/svg">
<path d="M3.1875 33V33.5H3.6875H40.5625H41.0625V33V27.85H42.2833C42.8032 27.85 43.2929 27.806 43.75 27.7155V33C43.75 33.6206 43.4734 34.1872 42.8282 34.7121C42.1831 35.2369 41.4352 35.5 40.5625 35.5H3.6875C2.86091 35.5 2.11943 35.24 1.44731 34.708C0.782989 34.1821 0.501344 33.6177 0.500005 33.0044L0.822025 15.7196H3.1875V30.35V33ZM19 2.5V0.5H40.5625C41.4315 0.5 42.1777 0.768983 42.823 1.30858C43.4783 1.85646 43.75 2.41795 43.75 3V8.33136C43.2929 8.24298 42.8032 8.2 42.2833 8.2H41.0625V3V2.5H40.5625H30.3313H21.3313H19ZM44.75 10.2V9.71629C44.9462 9.81883 45.1264 9.93587 45.2914 10.0667C45.9802 10.6131 46.3313 11.3547 46.3313 12.35V23.7C46.3313 24.6567 45.9838 25.3949 45.2865 25.9621C45.1229 26.0953 44.9442 26.2145 44.75 26.319V25.85H44.25H40.5625H40.0625V26.35V26.85H34.3313H25.703L25.2873 26.8276L24.8826 26.8059L24.4287 26.7364L23.9729 26.6247L23.6146 26.5006L23.2737 26.3452L22.9851 26.1781L22.6865 25.9613L22.4314 25.7301L22.2047 25.4714L22.021 25.2005L21.8711 24.9041L21.7611 24.5941L21.6837 24.2451L21.6663 24.0839L21.6484 23.918L21.6417 23.496V17.95V12.3615L21.659 11.9853L21.6814 11.8283L21.7036 11.6731L21.7812 11.3621L21.8323 11.2241L21.8854 11.0809L21.9528 10.9389L22.0491 10.7691L22.2413 10.4994L22.4414 10.2797L22.6819 10.0674L22.972 9.86144L23.2664 9.69448L23.6124 9.5406L23.9442 9.42748L24.4072 9.31463L24.8251 9.24932L25.2771 9.21076L25.696 9.2H40.0625V9.7V10.2H40.5625H44.25H44.75ZM43.1437 24.85H43.6437V24.35V11.7V11.2H43.1437H24.8292H24.3292V11.7V24.35V24.85H24.8292H43.1437ZM35.1152 19.8371C34.4049 20.415 33.6045 20.7 32.6958 20.7C31.7872 20.7 30.9868 20.415 30.2765 19.8371C29.5698 19.2622 29.2625 18.6373 29.2625 17.95C29.2625 17.3035 29.5627 16.7038 30.2715 16.1418C30.9817 15.5789 31.7837 15.3 32.6958 15.3C33.6079 15.3 34.41 15.5789 35.1201 16.1418C35.829 16.7038 36.1292 17.3035 36.1292 17.95C36.1292 18.6373 35.8219 19.2622 35.1152 19.8371Z" fill="#00FCDE" stroke="#00FCDE"/>
<path d="M17 3L10.5 12L4 3L17 3Z" fill="#00FCDE"/>
</svg>
