<svg width="47" height="35" viewBox="0 0 47 35" fill="none" xmlns="http://www.w3.org/2000/svg">
<path d="M3.1875 32.0833V32.5833H3.6875H40.5625H41.0625V32.0833V27.0903H42.2833C42.8032 27.0903 43.2929 27.0474 43.75 26.9593V32.0833C43.75 32.676 43.479 33.2223 42.8336 33.7328C42.1886 34.243 41.4388 34.5 40.5625 34.5H3.6875C2.85723 34.5 2.11389 34.2459 1.44193 33.7288L1.13698 34.125L1.44192 33.7288C0.777275 33.2172 0.501414 32.673 0.500005 32.0878L0.821764 15.2968H3.1875V29.5069V32.0833ZM19 2.41667V0.5H40.5625C41.4353 0.5 42.1833 0.762883 42.8284 1.28728C43.484 1.82024 43.75 2.36167 43.75 2.91667V8.08629C43.2929 8.00018 42.8032 7.95833 42.2833 7.95833H41.0625V2.91667V2.41667H40.5625H30.3313H21.3313H19ZM44.75 9.45874C44.9483 9.55913 45.1303 9.67385 45.2967 9.80219C45.9845 10.3326 46.3313 11.0485 46.3313 12.0069V23.0417C46.3313 23.9625 45.9882 24.6752 45.2919 25.2259C45.1268 25.3565 44.9464 25.4733 44.75 25.5756V25.1181H44.25H40.5625H40.0625V25.6181V26.0903H34.3313H25.7027L25.2865 26.0685L24.8812 26.0473L24.4262 25.9796L23.9692 25.8708L23.6102 25.7499L23.2686 25.5985L22.9798 25.4358L22.6811 25.2251L22.4264 25.0007L22.2006 24.75L22.0179 24.4881L21.8691 24.2021L21.7601 23.9035L21.6834 23.5671L21.6662 23.4119L21.6484 23.2519L21.6417 22.8431V17.4514V12.0188L21.659 11.655L21.6812 11.5037L21.7031 11.3541L21.78 11.0544L21.8307 10.9215L21.8835 10.7831L21.9501 10.6466L22.0456 10.4828L22.237 10.2218L22.4364 10.0089L22.6765 9.80282L22.9667 9.60259L23.2614 9.44007L23.6079 9.29022L23.9406 9.17996L24.4046 9.07002L24.8234 9.00637L25.2764 8.96881L25.6958 8.95833H40.0625V9.43056V9.93056H40.5625H44.25H44.75V9.45874ZM43.1437 24.1736H43.6437V23.6736V11.375V10.875H43.1437H24.8292H24.3292V11.375V23.6736V24.1736H24.8292H43.1437ZM35.1205 19.271C34.4104 19.8327 33.6082 20.1111 32.6958 20.1111C31.7835 20.1111 30.9812 19.8327 30.2711 19.271C29.5642 18.7119 29.2625 18.1088 29.2625 17.4514C29.2625 16.8339 29.5568 16.2552 30.2662 15.7085C30.9762 15.1613 31.7801 14.8889 32.6958 14.8889C33.6115 14.8889 34.4155 15.1613 35.1255 15.7085C35.8349 16.2552 36.1292 16.8339 36.1292 17.4514C36.1292 18.1088 35.8274 18.7119 35.1205 19.271Z" fill="#FF3A3A" stroke="#FF3A3A"/>
<path d="M4 12L10.5 3L17 12H4Z" fill="#FF3A3A"/>
</svg>
