<svg width="121" height="122" viewBox="0 0 121 122" fill="none" xmlns="http://www.w3.org/2000/svg">
<g filter="url(#filter0_d_81_173)">
<circle cx="60.5" cy="57.2523" r="56.5" fill="#0BDFA7"/>
<circle cx="60.5" cy="57.2523" r="56" stroke="#10936C"/>
</g>
<g filter="url(#filter1_d_81_173)">
<circle cx="61" cy="56.7523" r="50" fill="#10936C"/>
</g>
<g filter="url(#filter2_d_81_173)">
<path d="M43.5 36.2523V79.2359C39.591 78.9786 36.5 75.7264 36.5 71.7523V36.2523H43.5Z" fill="#08FFC6" stroke="#0D5F46"/>
<path d="M59.5 36.2687V71.7523C59.5 75.7264 56.409 78.9786 52.5 79.2359V43.7523C52.5 39.7781 55.591 36.526 59.5 36.2687Z" fill="#08FFC6" stroke="#0D5F46"/>
</g>
<g filter="url(#filter3_d_81_173)">
<path d="M53.4448 93.8923C52.6981 93.8923 52.1288 93.6823 51.7368 93.2623C51.3448 92.8329 51.1488 92.2216 51.1488 91.4283V83.9523H52.6888V91.5403C52.6888 91.8763 52.7541 92.1189 52.8848 92.2683C53.0248 92.4176 53.2208 92.4923 53.4728 92.4923C53.7248 92.4923 53.9161 92.4176 54.0468 92.2683C54.1868 92.1189 54.2568 91.8763 54.2568 91.5403V83.9523H55.7408V91.4283C55.7408 92.2216 55.5448 92.8329 55.1528 93.2623C54.7608 93.6823 54.1915 93.8923 53.4448 93.8923Z" fill="#E8FFFA"/>
<path d="M58.8396 93.8923C58.0929 93.8923 57.5283 93.6823 57.1456 93.2623C56.7629 92.8329 56.5716 92.2216 56.5716 91.4283V90.8683H58.0276V91.5403C58.0276 92.1749 58.2936 92.4923 58.8256 92.4923C59.0869 92.4923 59.2829 92.4176 59.4136 92.2683C59.5536 92.1096 59.6236 91.8576 59.6236 91.5123C59.6236 91.1016 59.5303 90.7423 59.3436 90.4343C59.1569 90.1169 58.8116 89.7389 58.3076 89.3003C57.6729 88.7403 57.2296 88.2363 56.9776 87.7883C56.7256 87.3309 56.5996 86.8176 56.5996 86.2483C56.5996 85.4736 56.7956 84.8763 57.1876 84.4563C57.5796 84.0269 58.1489 83.8123 58.8956 83.8123C59.6329 83.8123 60.1883 84.0269 60.5616 84.4563C60.9443 84.8763 61.1356 85.4829 61.1356 86.2763V86.6823H59.6796V86.1783C59.6796 85.8423 59.6143 85.5996 59.4836 85.4503C59.3529 85.2916 59.1616 85.2123 58.9096 85.2123C58.3963 85.2123 58.1396 85.5249 58.1396 86.1503C58.1396 86.5049 58.2329 86.8363 58.4196 87.1443C58.6156 87.4523 58.9656 87.8256 59.4696 88.2643C60.1136 88.8243 60.5569 89.3329 60.7996 89.7903C61.0423 90.2476 61.1636 90.7843 61.1636 91.4003C61.1636 92.2029 60.9629 92.8189 60.5616 93.2483C60.1696 93.6776 59.5956 93.8923 58.8396 93.8923Z" fill="#E8FFFA"/>
<path d="M62.0466 83.9523H64.3986C65.1639 83.9523 65.7379 84.1576 66.1206 84.5683C66.5033 84.9789 66.6946 85.5809 66.6946 86.3743V91.3303C66.6946 92.1236 66.5033 92.7256 66.1206 93.1363C65.7379 93.5469 65.1639 93.7523 64.3986 93.7523H62.0466V83.9523ZM64.3706 92.3523C64.6226 92.3523 64.8139 92.2776 64.9446 92.1283C65.0846 91.9789 65.1546 91.7363 65.1546 91.4003V86.3043C65.1546 85.9683 65.0846 85.7256 64.9446 85.5763C64.8139 85.4269 64.6226 85.3523 64.3706 85.3523H63.5866V92.3523H64.3706Z" fill="#E8FFFA"/>
<path d="M69.7361 93.8923C68.9894 93.8923 68.4248 93.6823 68.0421 93.2623C67.6594 92.8329 67.4681 92.2216 67.4681 91.4283V90.8683H68.9241V91.5403C68.9241 92.1749 69.1901 92.4923 69.7221 92.4923C69.9834 92.4923 70.1794 92.4176 70.3101 92.2683C70.4501 92.1096 70.5201 91.8576 70.5201 91.5123C70.5201 91.1016 70.4268 90.7423 70.2401 90.4343C70.0534 90.1169 69.7081 89.7389 69.2041 89.3003C68.5694 88.7403 68.1261 88.2363 67.8741 87.7883C67.6221 87.3309 67.4961 86.8176 67.4961 86.2483C67.4961 85.4736 67.6921 84.8763 68.0841 84.4563C68.4761 84.0269 69.0454 83.8123 69.7921 83.8123C70.5294 83.8123 71.0848 84.0269 71.4581 84.4563C71.8408 84.8763 72.0321 85.4829 72.0321 86.2763V86.6823H70.5761V86.1783C70.5761 85.8423 70.5108 85.5996 70.3801 85.4503C70.2494 85.2916 70.0581 85.2123 69.8061 85.2123C69.2928 85.2123 69.0361 85.5249 69.0361 86.1503C69.0361 86.5049 69.1294 86.8363 69.3161 87.1443C69.5121 87.4523 69.8621 87.8256 70.3661 88.2643C71.0101 88.8243 71.4534 89.3329 71.6961 89.7903C71.9388 90.2476 72.0601 90.7843 72.0601 91.4003C72.0601 92.2029 71.8594 92.8189 71.4581 93.2483C71.0661 93.6776 70.4921 93.8923 69.7361 93.8923Z" fill="#E8FFFA"/>
<path d="M61.5466 90.367V87.1823H61.1356H59.6796H59.1796V86.6823V86.1783C59.1796 85.886 59.1189 85.7927 59.1073 85.7795L59.1024 85.7739L59.0977 85.7681C59.0833 85.7506 59.0493 85.7123 58.9096 85.7123C58.7609 85.7123 58.7282 85.7523 58.7189 85.7636L58.7186 85.764C58.6944 85.7935 58.6396 85.8933 58.6396 86.1503C58.6396 86.4103 58.7062 86.6507 58.8444 86.8804C59.0023 87.1268 59.3084 87.461 59.7977 87.887L61.5466 90.367ZM61.5466 90.367C61.4771 90.0806 61.376 89.8097 61.2413 89.5559C60.9572 89.0205 60.462 88.4646 59.7979 87.8871L61.5466 90.367ZM51.3676 93.5994L51.3675 93.5994L51.3713 93.6034C51.8841 94.1528 52.6033 94.3923 53.4448 94.3923C54.2863 94.3923 55.0056 94.1528 55.5183 93.6034L55.5184 93.6034L55.522 93.5994C55.8456 93.245 56.0504 92.8086 56.1553 92.31C56.2576 92.8063 56.457 93.2411 56.7724 93.5949L56.7723 93.595L56.776 93.599C57.2808 94.153 57.9988 94.3923 58.8396 94.3923C59.6904 94.3923 60.4158 94.148 60.9289 93.5876C61.2315 93.263 61.4325 92.8679 61.5466 92.4179V93.7523V94.2523H62.0466H64.3986C65.2504 94.2523 65.9786 94.0221 66.4864 93.4771C66.7678 93.1751 66.9571 92.8068 67.0686 92.3873C67.1752 92.8515 67.3699 93.2596 67.6688 93.5949L67.6688 93.595L67.6725 93.599C68.1773 94.153 68.8953 94.3923 69.7361 94.3923C70.5869 94.3923 71.3124 94.148 71.8254 93.5875C72.3394 93.0363 72.5601 92.2815 72.5601 91.4003C72.5601 90.718 72.4254 90.0979 72.1378 89.5559C71.8537 89.0205 71.3585 88.4646 70.6944 87.8871C70.2049 87.4611 69.8988 87.1268 69.7409 86.8804C69.6027 86.6507 69.5361 86.4103 69.5361 86.1503C69.5361 85.8933 69.5908 85.7935 69.6151 85.764L69.6154 85.7636C69.6247 85.7523 69.6574 85.7123 69.8061 85.7123C69.9458 85.7123 69.9797 85.7506 69.9941 85.7681L69.9989 85.7739L70.0038 85.7795C70.0154 85.7927 70.0761 85.886 70.0761 86.1783V86.6823V87.1823H70.5761H72.0321H72.5321V86.6823V86.2763C72.5321 85.4101 72.3236 84.6665 71.8316 84.1238C71.3371 83.558 70.6263 83.3123 69.7921 83.3123C68.9484 83.3123 68.2286 83.5578 67.7167 84.1171C67.3943 84.4634 67.1893 84.8893 67.0836 85.3755C66.9744 84.9319 66.7808 84.5433 66.4864 84.2274C65.9786 83.6825 65.2504 83.4523 64.3986 83.4523H62.0466H61.5466V83.9523V85.3711C61.443 84.8885 61.2455 84.4662 60.9351 84.1238C60.4406 83.558 59.7298 83.3123 58.8956 83.3123C58.0519 83.3123 57.3321 83.5578 56.8202 84.1171C56.5457 84.4119 56.3563 84.7646 56.2408 85.163V83.9523V83.4523H55.7408H54.2568H53.7568V83.9523V91.5403C53.7568 91.8261 53.694 91.9136 53.682 91.9263L53.6762 91.9325L53.6705 91.939C53.6592 91.9519 53.6224 91.9923 53.4728 91.9923C53.3388 91.9923 53.2844 91.9595 53.2573 91.934C53.2399 91.909 53.1888 91.8083 53.1888 91.5403V83.9523V83.4523H52.6888H51.1488H50.6488V83.9523V91.4283C50.6488 92.3004 50.8649 93.0488 51.3676 93.5994ZM56.5716 90.3683H56.2408V87.3016C56.3125 87.5547 56.4119 87.7977 56.5397 88.0296L56.5397 88.0296L56.5418 88.0334C56.8333 88.5516 57.3236 89.0988 57.9768 89.6752L57.9768 89.6752L57.9794 89.6774C58.4701 90.1046 58.7671 90.4404 58.9126 90.6878L58.9126 90.6878L58.916 90.6934C59.049 90.9128 59.1236 91.1799 59.1236 91.5123C59.1236 91.8079 59.0606 91.9127 59.0387 91.9374L59.0373 91.939L59.0373 91.9391C59.0292 91.9483 58.9907 91.9923 58.8256 91.9923C58.6621 91.9923 58.6226 91.9477 58.6103 91.9331C58.5839 91.9015 58.5276 91.7999 58.5276 91.5403V90.8683V90.3683H58.0276H56.5716ZM67.4681 90.3683H67.1946V87.4846C67.2591 87.6724 67.3395 87.8541 67.4362 88.0296L67.4362 88.0296L67.4383 88.0334C67.7298 88.5516 68.2201 89.0988 68.8733 89.6752L68.8758 89.6774C69.3666 90.1046 69.6636 90.4404 69.8091 90.6878L69.8091 90.6878L69.8125 90.6934C69.9455 90.9128 70.0201 91.1799 70.0201 91.5123C70.0201 91.8079 69.9571 91.9127 69.9352 91.9374L69.9338 91.939L69.9337 91.9391C69.9257 91.9483 69.8872 91.9923 69.7221 91.9923C69.5586 91.9923 69.5191 91.9477 69.5068 91.9331C69.4804 91.9015 69.4241 91.7999 69.4241 91.5403V90.8683V90.3683H68.9241H67.4681ZM64.5798 91.7863L64.574 91.7925L64.5683 91.799C64.557 91.8119 64.5202 91.8523 64.3706 91.8523H64.0866V85.8523H64.3706C64.5202 85.8523 64.557 85.8926 64.5683 85.9055L64.574 85.912L64.5798 85.9182C64.5918 85.9309 64.6546 86.0185 64.6546 86.3043V91.4003C64.6546 91.6861 64.5918 91.7736 64.5798 91.7863Z" stroke="#0D5F46"/>
</g>
<g filter="url(#filter4_d_81_173)">
<path d="M62 78.7523C62 74.8863 65.134 71.7523 69 71.7523H83V71.7523C83 75.6183 79.866 78.7523 76 78.7523H62V78.7523Z" fill="#08FFC6"/>
<path d="M82.4811 72.2523C82.2257 75.6085 79.4216 78.2523 76 78.2523H62.5189C62.7743 74.896 65.5784 72.2523 69 72.2523H82.4811Z" stroke="#0D5F46"/>
</g>
<g filter="url(#filter5_d_81_173)">
<path d="M62 35.7523H76C79.866 35.7523 83 38.8863 83 42.7523V42.7523H69C65.134 42.7523 62 39.6183 62 35.7523V35.7523Z" fill="#08FFC6"/>
<path d="M62.5189 36.2523H76C79.4216 36.2523 82.2257 38.896 82.4811 42.2523H69C65.5784 42.2523 62.7743 39.6085 62.5189 36.2523Z" stroke="#0D5F46"/>
</g>
<g filter="url(#filter6_d_81_173)">
<path d="M65.6568 56.066C62.5327 52.9418 62.5327 47.8765 65.6569 44.7523V44.7523L80.4376 59.533C83.5618 62.6572 83.5618 67.7226 80.4376 70.8467V70.8467L65.6568 56.066Z" fill="#08FFC6"/>
<path d="M65.6685 45.471L80.0841 59.8866C82.8942 62.6967 83.0082 67.182 80.426 70.128L66.0104 55.7124C63.2003 52.9023 63.0863 48.417 65.6685 45.471Z" stroke="#0D5F46"/>
</g>
<defs>
<filter id="filter0_d_81_173" x="0" y="0.752258" width="121" height="121" filterUnits="userSpaceOnUse" color-interpolation-filters="sRGB">
<feFlood flood-opacity="0" result="BackgroundImageFix"/>
<feColorMatrix in="SourceAlpha" type="matrix" values="0 0 0 0 0 0 0 0 0 0 0 0 0 0 0 0 0 0 127 0" result="hardAlpha"/>
<feOffset dy="4"/>
<feGaussianBlur stdDeviation="2"/>
<feComposite in2="hardAlpha" operator="out"/>
<feColorMatrix type="matrix" values="0 0 0 0 0 0 0 0 0 0 0 0 0 0 0 0 0 0 0.25 0"/>
<feBlend mode="normal" in2="BackgroundImageFix" result="effect1_dropShadow_81_173"/>
<feBlend mode="normal" in="SourceGraphic" in2="effect1_dropShadow_81_173" result="shape"/>
</filter>
<filter id="filter1_d_81_173" x="7" y="6.75226" width="108" height="108" filterUnits="userSpaceOnUse" color-interpolation-filters="sRGB">
<feFlood flood-opacity="0" result="BackgroundImageFix"/>
<feColorMatrix in="SourceAlpha" type="matrix" values="0 0 0 0 0 0 0 0 0 0 0 0 0 0 0 0 0 0 127 0" result="hardAlpha"/>
<feOffset dy="4"/>
<feGaussianBlur stdDeviation="2"/>
<feComposite in2="hardAlpha" operator="out"/>
<feColorMatrix type="matrix" values="0 0 0 0 0 0 0 0 0 0 0 0 0 0 0 0 0 0 0.25 0"/>
<feBlend mode="normal" in2="BackgroundImageFix" result="effect1_dropShadow_81_173"/>
<feBlend mode="normal" in="SourceGraphic" in2="effect1_dropShadow_81_173" result="shape"/>
</filter>
<filter id="filter2_d_81_173" x="32" y="35.7523" width="32" height="52" filterUnits="userSpaceOnUse" color-interpolation-filters="sRGB">
<feFlood flood-opacity="0" result="BackgroundImageFix"/>
<feColorMatrix in="SourceAlpha" type="matrix" values="0 0 0 0 0 0 0 0 0 0 0 0 0 0 0 0 0 0 127 0" result="hardAlpha"/>
<feOffset dy="4"/>
<feGaussianBlur stdDeviation="2"/>
<feComposite in2="hardAlpha" operator="out"/>
<feColorMatrix type="matrix" values="0 0 0 0 0 0 0 0 0 0 0 0 0 0 0 0 0 0 0.25 0"/>
<feBlend mode="normal" in2="BackgroundImageFix" result="effect1_dropShadow_81_173"/>
<feBlend mode="normal" in="SourceGraphic" in2="effect1_dropShadow_81_173" result="shape"/>
</filter>
<filter id="filter3_d_81_173" x="46.1488" y="82.8123" width="30.9113" height="20.08" filterUnits="userSpaceOnUse" color-interpolation-filters="sRGB">
<feFlood flood-opacity="0" result="BackgroundImageFix"/>
<feColorMatrix in="SourceAlpha" type="matrix" values="0 0 0 0 0 0 0 0 0 0 0 0 0 0 0 0 0 0 127 0" result="hardAlpha"/>
<feOffset dy="4"/>
<feGaussianBlur stdDeviation="2"/>
<feComposite in2="hardAlpha" operator="out"/>
<feColorMatrix type="matrix" values="0 0 0 0 0 0 0 0 0 0 0 0 0 0 0 0 0 0 0.25 0"/>
<feBlend mode="normal" in2="BackgroundImageFix" result="effect1_dropShadow_81_173"/>
<feBlend mode="normal" in="SourceGraphic" in2="effect1_dropShadow_81_173" result="shape"/>
</filter>
<filter id="filter4_d_81_173" x="58" y="71.7523" width="29" height="15" filterUnits="userSpaceOnUse" color-interpolation-filters="sRGB">
<feFlood flood-opacity="0" result="BackgroundImageFix"/>
<feColorMatrix in="SourceAlpha" type="matrix" values="0 0 0 0 0 0 0 0 0 0 0 0 0 0 0 0 0 0 127 0" result="hardAlpha"/>
<feOffset dy="4"/>
<feGaussianBlur stdDeviation="2"/>
<feComposite in2="hardAlpha" operator="out"/>
<feColorMatrix type="matrix" values="0 0 0 0 0 0 0 0 0 0 0 0 0 0 0 0 0 0 0.25 0"/>
<feBlend mode="normal" in2="BackgroundImageFix" result="effect1_dropShadow_81_173"/>
<feBlend mode="normal" in="SourceGraphic" in2="effect1_dropShadow_81_173" result="shape"/>
</filter>
<filter id="filter5_d_81_173" x="58" y="35.7523" width="29" height="15" filterUnits="userSpaceOnUse" color-interpolation-filters="sRGB">
<feFlood flood-opacity="0" result="BackgroundImageFix"/>
<feColorMatrix in="SourceAlpha" type="matrix" values="0 0 0 0 0 0 0 0 0 0 0 0 0 0 0 0 0 0 127 0" result="hardAlpha"/>
<feOffset dy="4"/>
<feGaussianBlur stdDeviation="2"/>
<feComposite in2="hardAlpha" operator="out"/>
<feColorMatrix type="matrix" values="0 0 0 0 0 0 0 0 0 0 0 0 0 0 0 0 0 0 0.25 0"/>
<feBlend mode="normal" in2="BackgroundImageFix" result="effect1_dropShadow_81_173"/>
<feBlend mode="normal" in="SourceGraphic" in2="effect1_dropShadow_81_173" result="shape"/>
</filter>
<filter id="filter6_d_81_173" x="59.3137" y="44.7523" width="27.467" height="34.0945" filterUnits="userSpaceOnUse" color-interpolation-filters="sRGB">
<feFlood flood-opacity="0" result="BackgroundImageFix"/>
<feColorMatrix in="SourceAlpha" type="matrix" values="0 0 0 0 0 0 0 0 0 0 0 0 0 0 0 0 0 0 127 0" result="hardAlpha"/>
<feOffset dy="4"/>
<feGaussianBlur stdDeviation="2"/>
<feComposite in2="hardAlpha" operator="out"/>
<feColorMatrix type="matrix" values="0 0 0 0 0 0 0 0 0 0 0 0 0 0 0 0 0 0 0.25 0"/>
<feBlend mode="normal" in2="BackgroundImageFix" result="effect1_dropShadow_81_173"/>
<feBlend mode="normal" in="SourceGraphic" in2="effect1_dropShadow_81_173" result="shape"/>
</filter>
</defs>
</svg>
