<svg width="121" height="122" viewBox="0 0 121 122" fill="none" xmlns="http://www.w3.org/2000/svg">
<g filter="url(#filter0_d_81_173)">
<circle cx="60.5" cy="57.2523" r="56.5" fill="#0BDFA7"/>
<circle cx="60.5" cy="57.2523" r="56" stroke="#10936C"/>
</g>
<g filter="url(#filter1_d_81_173)">
<circle cx="61" cy="56.7523" r="50" fill="#10936C"/>
</g>
<g filter="url(#filter2_d_81_173)">
<path d="M40.5 31.5V79.4893C34.3807 79.2275 29.5 74.1837 29.5 68V31.5H40.5Z" fill="#08FFC6" stroke="#0D5F46"/>
<path d="M59.5 31.5107V68C59.5 74.1837 54.6193 79.2275 48.5 79.4893V43C48.5 36.8163 53.3807 31.7725 59.5 31.5107Z" fill="#08FFC6" stroke="#0D5F46"/>
</g>
<g filter="url(#filter3_d_81_173)">
<path d="M53.296 99.08C52.5493 99.08 51.98 98.87 51.588 98.45C51.196 98.0207 51 97.4093 51 96.616V89.14H52.54V96.728C52.54 97.064 52.6053 97.3067 52.736 97.456C52.876 97.6053 53.072 97.68 53.324 97.68C53.576 97.68 53.7673 97.6053 53.898 97.456C54.038 97.3067 54.108 97.064 54.108 96.728V89.14H55.592V96.616C55.592 97.4093 55.396 98.0207 55.004 98.45C54.612 98.87 54.0427 99.08 53.296 99.08Z" fill="#E8FFFA"/>
<path d="M58.6908 99.08C57.9441 99.08 57.3795 98.87 56.9968 98.45C56.6141 98.0207 56.4228 97.4093 56.4228 96.616V96.056H57.8788V96.728C57.8788 97.3627 58.1448 97.68 58.6768 97.68C58.9381 97.68 59.1341 97.6053 59.2648 97.456C59.4048 97.2973 59.4748 97.0453 59.4748 96.7C59.4748 96.2893 59.3815 95.93 59.1948 95.622C59.0081 95.3047 58.6628 94.9267 58.1588 94.488C57.5241 93.928 57.0808 93.424 56.8288 92.976C56.5768 92.5187 56.4508 92.0053 56.4508 91.436C56.4508 90.6613 56.6468 90.064 57.0388 89.644C57.4308 89.2147 58.0001 89 58.7468 89C59.4841 89 60.0395 89.2147 60.4128 89.644C60.7955 90.064 60.9868 90.6707 60.9868 91.464V91.87H59.5308V91.366C59.5308 91.03 59.4655 90.7873 59.3348 90.638C59.2041 90.4793 59.0128 90.4 58.7608 90.4C58.2475 90.4 57.9908 90.7127 57.9908 91.338C57.9908 91.6927 58.0841 92.024 58.2708 92.332C58.4668 92.64 58.8168 93.0133 59.3208 93.452C59.9648 94.012 60.4081 94.5207 60.6508 94.978C60.8935 95.4353 61.0148 95.972 61.0148 96.588C61.0148 97.3907 60.8141 98.0067 60.4128 98.436C60.0208 98.8653 59.4468 99.08 58.6908 99.08Z" fill="#E8FFFA"/>
<path d="M61.8978 89.14H64.2498C65.0151 89.14 65.5891 89.3453 65.9718 89.756C66.3545 90.1667 66.5458 90.7687 66.5458 91.562V96.518C66.5458 97.3113 66.3545 97.9133 65.9718 98.324C65.5891 98.7347 65.0151 98.94 64.2498 98.94H61.8978V89.14ZM64.2218 97.54C64.4738 97.54 64.6651 97.4653 64.7958 97.316C64.9358 97.1667 65.0058 96.924 65.0058 96.588V91.492C65.0058 91.156 64.9358 90.9133 64.7958 90.764C64.6651 90.6147 64.4738 90.54 64.2218 90.54H63.4378V97.54H64.2218Z" fill="#E8FFFA"/>
<path d="M69.5873 99.08C68.8406 99.08 68.276 98.87 67.8933 98.45C67.5106 98.0207 67.3193 97.4093 67.3193 96.616V96.056H68.7753V96.728C68.7753 97.3627 69.0413 97.68 69.5733 97.68C69.8346 97.68 70.0306 97.6053 70.1613 97.456C70.3013 97.2973 70.3713 97.0453 70.3713 96.7C70.3713 96.2893 70.278 95.93 70.0913 95.622C69.9046 95.3047 69.5593 94.9267 69.0553 94.488C68.4206 93.928 67.9773 93.424 67.7253 92.976C67.4733 92.5187 67.3473 92.0053 67.3473 91.436C67.3473 90.6613 67.5433 90.064 67.9353 89.644C68.3273 89.2147 68.8966 89 69.6433 89C70.3806 89 70.936 89.2147 71.3093 89.644C71.692 90.064 71.8833 90.6707 71.8833 91.464V91.87H70.4273V91.366C70.4273 91.03 70.362 90.7873 70.2313 90.638C70.1006 90.4793 69.9093 90.4 69.6573 90.4C69.144 90.4 68.8873 90.7127 68.8873 91.338C68.8873 91.6927 68.9806 92.024 69.1673 92.332C69.3633 92.64 69.7133 93.0133 70.2173 93.452C70.8613 94.012 71.3046 94.5207 71.5473 94.978C71.79 95.4353 71.9113 95.972 71.9113 96.588C71.9113 97.3907 71.7106 98.0067 71.3093 98.436C70.9173 98.8653 70.3433 99.08 69.5873 99.08Z" fill="#E8FFFA"/>
<path d="M61.3978 95.5547V92.37H60.9868H59.5308H59.0308V91.87V91.366C59.0308 91.0737 58.9701 90.9805 58.9585 90.9673L58.9536 90.9616L58.9488 90.9559C58.9345 90.9384 58.9005 90.9 58.7608 90.9C58.6121 90.9 58.5794 90.94 58.5701 90.9513L58.5698 90.9517C58.5455 90.9813 58.4908 91.0811 58.4908 91.338C58.4908 91.5981 58.5574 91.8385 58.6956 92.0682C58.8535 92.3146 59.1596 92.6488 59.6489 93.0747L61.3978 95.5547ZM61.3978 95.5547C61.3283 95.2683 61.2272 94.9974 61.0925 94.7436C60.8084 94.2083 60.3132 93.6524 59.6491 93.0748L61.3978 95.5547ZM51.2188 98.7871L51.2187 98.7872L51.2225 98.7912C51.7352 99.3406 52.4545 99.58 53.296 99.58C54.1375 99.58 54.8568 99.3406 55.3695 98.7912L55.3695 98.7912L55.3732 98.7871C55.6968 98.4327 55.9016 97.9964 56.0065 97.4978C56.1088 97.994 56.3082 98.4288 56.6236 98.7827L56.6235 98.7827L56.6272 98.7867C57.132 99.3408 57.85 99.58 58.6908 99.58C59.5416 99.58 60.267 99.3358 60.7801 98.7753C61.0827 98.4508 61.2837 98.0556 61.3978 97.6056V98.94V99.44H61.8978H64.2498C65.1016 99.44 65.8298 99.2098 66.3376 98.6649C66.619 98.3628 66.8083 97.9945 66.9198 97.5751C67.0264 98.0393 67.2211 98.4473 67.52 98.7827L67.52 98.7827L67.5237 98.7867C68.0285 99.3408 68.7465 99.58 69.5873 99.58C70.4381 99.58 71.1636 99.3358 71.6766 98.7753C72.1906 98.2241 72.4113 97.4693 72.4113 96.588C72.4113 95.9057 72.2766 95.2857 71.989 94.7436C71.7049 94.2083 71.2097 93.6524 70.5456 93.0748C70.0561 92.6489 69.75 92.3146 69.5921 92.0682C69.4539 91.8385 69.3873 91.598 69.3873 91.338C69.3873 91.0811 69.442 90.9813 69.4663 90.9517L69.4666 90.9513C69.4758 90.94 69.5086 90.9 69.6573 90.9C69.797 90.9 69.8309 90.9384 69.8453 90.9559L69.8501 90.9616L69.855 90.9673C69.8666 90.9805 69.9273 91.0737 69.9273 91.366V91.87V92.37H70.4273H71.8833H72.3833V91.87V91.464C72.3833 90.5978 72.1748 89.8542 71.6828 89.3115C71.1883 88.7458 70.4775 88.5 69.6433 88.5C68.7996 88.5 68.0798 88.7455 67.5679 89.3049C67.2455 89.6511 67.0405 90.0771 66.9348 90.5633C66.8256 90.1196 66.632 89.7311 66.3376 89.4151C65.8298 88.8702 65.1016 88.64 64.2498 88.64H61.8978H61.3978V89.14V90.5588C61.2942 90.0762 61.0967 89.6539 60.7863 89.3115C60.2918 88.7458 59.581 88.5 58.7468 88.5C57.9031 88.5 57.1833 88.7455 56.6714 89.3048C56.3969 89.5997 56.2075 89.9523 56.092 90.3507V89.14V88.64H55.592H54.108H53.608V89.14V96.728C53.608 97.0138 53.5452 97.1013 53.5332 97.114L53.5274 97.1203L53.5217 97.1267C53.5104 97.1396 53.4736 97.18 53.324 97.18C53.19 97.18 53.1356 97.1472 53.1085 97.1217C53.0911 97.0967 53.04 96.996 53.04 96.728V89.14V88.64H52.54H51H50.5V89.14V96.616C50.5 97.4881 50.7161 98.2366 51.2188 98.7871ZM56.4228 95.556H56.092V92.4893C56.1637 92.7425 56.2631 92.9854 56.3909 93.2173L56.3909 93.2173L56.393 93.2211C56.6845 93.7394 57.1748 94.2866 57.828 94.8629L57.828 94.8629L57.8306 94.8652C58.3213 95.2923 58.6183 95.6281 58.7638 95.8755L58.7638 95.8755L58.7672 95.8812C58.9002 96.1005 58.9748 96.3676 58.9748 96.7C58.9748 96.9957 58.9118 97.1004 58.8899 97.1252L58.8885 97.1267L58.8885 97.1268C58.8804 97.136 58.8419 97.18 58.6768 97.18C58.5133 97.18 58.4738 97.1354 58.4615 97.1208C58.4351 97.0893 58.3788 96.9877 58.3788 96.728V96.056V95.556H57.8788H56.4228ZM67.3193 95.556H67.0458V92.6724C67.1103 92.8601 67.1907 93.0419 67.2874 93.2173L67.2874 93.2173L67.2895 93.2211C67.581 93.7394 68.0713 94.2866 68.7245 94.8629L68.727 94.8652C69.2178 95.2923 69.5148 95.6281 69.6603 95.8755L69.6603 95.8755L69.6637 95.8812C69.7967 96.1005 69.8713 96.3676 69.8713 96.7C69.8713 96.9957 69.8082 97.1004 69.7864 97.1252L69.785 97.1267L69.7849 97.1268C69.7769 97.136 69.7384 97.18 69.5733 97.18C69.4098 97.18 69.3702 97.1354 69.358 97.1208C69.3316 97.0893 69.2753 96.9877 69.2753 96.728V96.056V95.556H68.7753H67.3193ZM64.431 96.974L64.4252 96.9803L64.4195 96.9867C64.4082 96.9996 64.3714 97.04 64.2218 97.04H63.9378V91.04H64.2218C64.3714 91.04 64.4082 91.0804 64.4195 91.0933L64.4252 91.0997L64.431 91.106C64.443 91.1187 64.5058 91.2062 64.5058 91.492V96.588C64.5058 96.8738 64.443 96.9613 64.431 96.974Z" stroke="#0D5F46"/>
</g>
<g filter="url(#filter4_d_81_173)">
<path d="M63 80C63 74.894 67.1393 70.7548 72.2453 70.7548H92V70.7548C92 75.8608 87.8607 80 82.7547 80H63V80Z" fill="#08FFC6"/>
<path d="M91.4859 71.2548C91.2268 75.852 87.4168 79.5 82.7547 79.5H63.5141C63.7732 74.9028 67.5832 71.2548 72.2453 71.2548H91.4859Z" stroke="#0D5F46"/>
</g>
<g filter="url(#filter5_d_81_173)">
<path d="M63 31H82.7547C87.8607 31 92 35.1393 92 40.2453V40.2453H72.2453C67.1393 40.2453 63 36.106 63 31V31Z" fill="#08FFC6"/>
<path d="M63.5141 31.5H82.7547C87.4168 31.5 91.2268 35.148 91.4859 39.7453H72.2453C67.5832 39.7453 63.7732 36.0972 63.5141 31.5Z" stroke="#0D5F46"/>
</g>
<g filter="url(#filter6_d_81_173)">
<path d="M69.752 55.7376C64.3661 51.6246 64.3661 44.9563 69.752 40.8434V40.8434L88.1958 54.928C93.5817 59.0409 93.5817 65.7093 88.1958 69.8222V69.8222L69.752 55.7376Z" fill="#08FFC6"/>
<path d="M69.7603 41.4566L87.7984 55.2314C92.8317 59.0751 92.9614 65.2454 88.1875 69.2089L70.1494 55.4341C65.1161 51.5904 64.9864 45.4202 69.7603 41.4566Z" stroke="#0D5F46"/>
</g>
<defs>
<filter id="filter0_d_81_173" x="0" y="0.752258" width="121" height="121" filterUnits="userSpaceOnUse" color-interpolation-filters="sRGB">
<feFlood flood-opacity="0" result="BackgroundImageFix"/>
<feColorMatrix in="SourceAlpha" type="matrix" values="0 0 0 0 0 0 0 0 0 0 0 0 0 0 0 0 0 0 127 0" result="hardAlpha"/>
<feOffset dy="4"/>
<feGaussianBlur stdDeviation="2"/>
<feComposite in2="hardAlpha" operator="out"/>
<feColorMatrix type="matrix" values="0 0 0 0 0 0 0 0 0 0 0 0 0 0 0 0 0 0 0.25 0"/>
<feBlend mode="normal" in2="BackgroundImageFix" result="effect1_dropShadow_81_173"/>
<feBlend mode="normal" in="SourceGraphic" in2="effect1_dropShadow_81_173" result="shape"/>
</filter>
<filter id="filter1_d_81_173" x="7" y="6.75226" width="108" height="108" filterUnits="userSpaceOnUse" color-interpolation-filters="sRGB">
<feFlood flood-opacity="0" result="BackgroundImageFix"/>
<feColorMatrix in="SourceAlpha" type="matrix" values="0 0 0 0 0 0 0 0 0 0 0 0 0 0 0 0 0 0 127 0" result="hardAlpha"/>
<feOffset dy="4"/>
<feGaussianBlur stdDeviation="2"/>
<feComposite in2="hardAlpha" operator="out"/>
<feColorMatrix type="matrix" values="0 0 0 0 0 0 0 0 0 0 0 0 0 0 0 0 0 0 0.25 0"/>
<feBlend mode="normal" in2="BackgroundImageFix" result="effect1_dropShadow_81_173"/>
<feBlend mode="normal" in="SourceGraphic" in2="effect1_dropShadow_81_173" result="shape"/>
</filter>
<filter id="filter2_d_81_173" x="25" y="31" width="39" height="57" filterUnits="userSpaceOnUse" color-interpolation-filters="sRGB">
<feFlood flood-opacity="0" result="BackgroundImageFix"/>
<feColorMatrix in="SourceAlpha" type="matrix" values="0 0 0 0 0 0 0 0 0 0 0 0 0 0 0 0 0 0 127 0" result="hardAlpha"/>
<feOffset dy="4"/>
<feGaussianBlur stdDeviation="2"/>
<feComposite in2="hardAlpha" operator="out"/>
<feColorMatrix type="matrix" values="0 0 0 0 0 0 0 0 0 0 0 0 0 0 0 0 0 0 0.25 0"/>
<feBlend mode="normal" in2="BackgroundImageFix" result="effect1_dropShadow_81_173"/>
<feBlend mode="normal" in="SourceGraphic" in2="effect1_dropShadow_81_173" result="shape"/>
</filter>
<filter id="filter3_d_81_173" x="46" y="88" width="30.9113" height="20.08" filterUnits="userSpaceOnUse" color-interpolation-filters="sRGB">
<feFlood flood-opacity="0" result="BackgroundImageFix"/>
<feColorMatrix in="SourceAlpha" type="matrix" values="0 0 0 0 0 0 0 0 0 0 0 0 0 0 0 0 0 0 127 0" result="hardAlpha"/>
<feOffset dy="4"/>
<feGaussianBlur stdDeviation="2"/>
<feComposite in2="hardAlpha" operator="out"/>
<feColorMatrix type="matrix" values="0 0 0 0 0 0 0 0 0 0 0 0 0 0 0 0 0 0 0.25 0"/>
<feBlend mode="normal" in2="BackgroundImageFix" result="effect1_dropShadow_81_173"/>
<feBlend mode="normal" in="SourceGraphic" in2="effect1_dropShadow_81_173" result="shape"/>
</filter>
<filter id="filter4_d_81_173" x="59" y="70.7548" width="37" height="17.2453" filterUnits="userSpaceOnUse" color-interpolation-filters="sRGB">
<feFlood flood-opacity="0" result="BackgroundImageFix"/>
<feColorMatrix in="SourceAlpha" type="matrix" values="0 0 0 0 0 0 0 0 0 0 0 0 0 0 0 0 0 0 127 0" result="hardAlpha"/>
<feOffset dy="4"/>
<feGaussianBlur stdDeviation="2"/>
<feComposite in2="hardAlpha" operator="out"/>
<feColorMatrix type="matrix" values="0 0 0 0 0 0 0 0 0 0 0 0 0 0 0 0 0 0 0.25 0"/>
<feBlend mode="normal" in2="BackgroundImageFix" result="effect1_dropShadow_81_173"/>
<feBlend mode="normal" in="SourceGraphic" in2="effect1_dropShadow_81_173" result="shape"/>
</filter>
<filter id="filter5_d_81_173" x="59" y="31" width="37" height="17.2453" filterUnits="userSpaceOnUse" color-interpolation-filters="sRGB">
<feFlood flood-opacity="0" result="BackgroundImageFix"/>
<feColorMatrix in="SourceAlpha" type="matrix" values="0 0 0 0 0 0 0 0 0 0 0 0 0 0 0 0 0 0 127 0" result="hardAlpha"/>
<feOffset dy="4"/>
<feGaussianBlur stdDeviation="2"/>
<feComposite in2="hardAlpha" operator="out"/>
<feColorMatrix type="matrix" values="0 0 0 0 0 0 0 0 0 0 0 0 0 0 0 0 0 0 0.25 0"/>
<feBlend mode="normal" in2="BackgroundImageFix" result="effect1_dropShadow_81_173"/>
<feBlend mode="normal" in="SourceGraphic" in2="effect1_dropShadow_81_173" result="shape"/>
</filter>
<filter id="filter6_d_81_173" x="61.7126" y="40.8434" width="34.5226" height="36.9788" filterUnits="userSpaceOnUse" color-interpolation-filters="sRGB">
<feFlood flood-opacity="0" result="BackgroundImageFix"/>
<feColorMatrix in="SourceAlpha" type="matrix" values="0 0 0 0 0 0 0 0 0 0 0 0 0 0 0 0 0 0 127 0" result="hardAlpha"/>
<feOffset dy="4"/>
<feGaussianBlur stdDeviation="2"/>
<feComposite in2="hardAlpha" operator="out"/>
<feColorMatrix type="matrix" values="0 0 0 0 0 0 0 0 0 0 0 0 0 0 0 0 0 0 0.25 0"/>
<feBlend mode="normal" in2="BackgroundImageFix" result="effect1_dropShadow_81_173"/>
<feBlend mode="normal" in="SourceGraphic" in2="effect1_dropShadow_81_173" result="shape"/>
</filter>
</defs>
</svg>
