<svg width="121" height="122" viewBox="0 0 121 122" fill="none" xmlns="http://www.w3.org/2000/svg">
<g filter="url(#filter0_d_81_173)">
<circle cx="60.5" cy="57.2523" r="56.5" fill="#0BDFA7"/>
<circle cx="60.5" cy="57.2523" r="56" stroke="#10936C"/>
</g>
<g filter="url(#filter1_d_81_173)">
<circle cx="61" cy="56.7523" r="50" fill="#10936C"/>
</g>
<path d="M43.5 36.2523V79.2359C39.591 78.9786 36.5 75.7264 36.5 71.7523V36.2523H43.5Z" fill="#08FFC6" stroke="#0D5F46"/>
<path d="M59.5 36.2687V71.7523C59.5 75.7264 56.409 78.9786 52.5 79.2359V43.7523C52.5 39.7781 55.591 36.526 59.5 36.2687Z" fill="#08FFC6" stroke="#0D5F46"/>
<path d="M61.5466 90.367V87.1823H61.1356H59.6796H59.1796V86.6823V86.1783C59.1796 85.886 59.1189 85.7927 59.1073 85.7795L59.1024 85.7739L59.0977 85.7681C59.0833 85.7506 59.0493 85.7123 58.9096 85.7123C58.7609 85.7123 58.7282 85.7523 58.7189 85.7636L58.7186 85.764C58.6944 85.7935 58.6396 85.8933 58.6396 86.1503C58.6396 86.4103 58.7062 86.6507 58.8444 86.8804C59.0023 87.1268 59.3084 87.461 59.7977 87.887L61.5466 90.367ZM61.5466 90.367C61.4771 90.0806 61.376 89.8097 61.2413 89.5559C60.9572 89.0205 60.462 88.4646 59.7979 87.8871L61.5466 90.367ZM51.3676 93.5994L51.3675 93.5994L51.3713 93.6034C51.8841 94.1528 52.6033 94.3923 53.4448 94.3923C54.2863 94.3923 55.0056 94.1528 55.5183 93.6034L55.5184 93.6034L55.522 93.5994C55.8456 93.245 56.0504 92.8086 56.1553 92.31C56.2576 92.8063 56.457 93.2411 56.7724 93.5949L56.7723 93.595L56.776 93.599C57.2808 94.153 57.9988 94.3923 58.8396 94.3923C59.6904 94.3923 60.4158 94.148 60.9289 93.5876C61.2315 93.263 61.4325 92.8679 61.5466 92.4179V93.7523V94.2523H62.0466H64.3986C65.2504 94.2523 65.9786 94.0221 66.4864 93.4771C66.7678 93.1751 66.9571 92.8068 67.0686 92.3873C67.1752 92.8515 67.3699 93.2596 67.6688 93.5949L67.6688 93.595L67.6725 93.599C68.1773 94.153 68.8953 94.3923 69.7361 94.3923C70.5869 94.3923 71.3124 94.148 71.8254 93.5875C72.3394 93.0363 72.5601 92.2815 72.5601 91.4003C72.5601 90.718 72.4254 90.0979 72.1378 89.5559C71.8537 89.0205 71.3585 88.4646 70.6944 87.8871C70.2049 87.4611 69.8988 87.1268 69.7409 86.8804C69.6027 86.6507 69.5361 86.4103 69.5361 86.1503C69.5361 85.8933 69.5908 85.7935 69.6151 85.764L69.6154 85.7636C69.6247 85.7523 69.6574 85.7123 69.8061 85.7123C69.9458 85.7123 69.9797 85.7506 69.9941 85.7681L69.9989 85.7739L70.0038 85.7795C70.0154 85.7927 70.0761 85.886 70.0761 86.1783V86.6823V87.1823H70.5761H72.0321H72.5321V86.6823V86.2763C72.5321 85.4101 72.3236 84.6665 71.8316 84.1238C71.3371 83.558 70.6263 83.3123 69.7921 83.3123C68.9484 83.3123 68.2286 83.5578 67.7167 84.1171C67.3943 84.4634 67.1893 84.8893 67.0836 85.3755C66.9744 84.9319 66.7808 84.5433 66.4864 84.2274C65.9786 83.6825 65.2504 83.4523 64.3986 83.4523H62.0466H61.5466V83.9523V85.3711C61.443 84.8885 61.2455 84.4662 60.9351 84.1238C60.4406 83.558 59.7298 83.3123 58.8956 83.3123C58.0519 83.3123 57.3321 83.5578 56.8202 84.1171C56.5457 84.4119 56.3563 84.7646 56.2408 85.163V83.9523V83.4523H55.7408H54.2568H53.7568V83.9523V91.5403C53.7568 91.8261 53.694 91.9136 53.682 91.9263L53.6762 91.9325L53.6705 91.939C53.6592 91.9519 53.6224 91.9923 53.4728 91.9923C53.3388 91.9923 53.2844 91.9595 53.2573 91.934C53.2399 91.909 53.1888 91.8083 53.1888 91.5403V83.9523V83.4523H52.6888H51.1488H50.6488V83.9523V91.4283C50.6488 92.3004 50.8649 93.0488 51.3676 93.5994ZM56.5716 90.3683H56.2408V87.3016C56.3125 87.5547 56.4119 87.7977 56.5397 88.0296L56.5397 88.0296L56.5418 88.0334C56.8333 88.5516 57.3236 89.0988 57.9768 89.6752L57.9768 89.6752L57.9794 89.6774C58.4701 90.1046 58.7671 90.4404 58.9126 90.6878L58.9126 90.6878L58.916 90.6934C59.049 90.9128 59.1236 91.1799 59.1236 91.5123C59.1236 91.8079 59.0606 91.9127 59.0387 91.9374L59.0373 91.939L59.0373 91.9391C59.0292 91.9483 58.9907 91.9923 58.8256 91.9923C58.6621 91.9923 58.6226 91.9477 58.6103 91.9331C58.5839 91.9015 58.5276 91.7999 58.5276 91.5403V90.8683V90.3683H58.0276H56.5716ZM67.4681 90.3683H67.1946V87.4846C67.2591 87.6724 67.3395 87.8541 67.4362 88.0296L67.4362 88.0296L67.4383 88.0334C67.7298 88.5516 68.2201 89.0988 68.8733 89.6752L68.8758 89.6774C69.3666 90.1046 69.6636 90.4404 69.8091 90.6878L69.8091 90.6878L69.8125 90.6934C69.9455 90.9128 70.0201 91.1799 70.0201 91.5123C70.0201 91.8079 69.9571 91.9127 69.9352 91.9374L69.9338 91.939L69.9337 91.9391C69.9257 91.9483 69.8872 91.9923 69.7221 91.9923C69.5586 91.9923 69.5191 91.9477 69.5068 91.9331C69.4804 91.9015 69.4241 91.7999 69.4241 91.5403V90.8683V90.3683H68.9241H67.4681ZM64.5798 91.7863L64.574 91.7925L64.5683 91.799C64.557 91.8119 64.5202 91.8523 64.3706 91.8523H64.0866V85.8523H64.3706C64.5202 85.8523 64.557 85.8926 64.5683 85.9055L64.574 85.912L64.5798 85.9182C64.5918 85.9309 64.6546 86.0185 64.6546 86.3043V91.4003C64.6546 91.6861 64.5918 91.7736 64.5798 91.7863Z" fill="#E8FFFA" stroke="#0D5F46"/>
<path d="M82.4811 72.2523C82.2257 75.6085 79.4216 78.2523 76 78.2523H62.5189C62.7743 74.896 65.5784 72.2523 69 72.2523H82.4811Z" fill="#08FFC6" stroke="#0D5F46"/>
<path d="M62.5189 36.2523H76C79.4216 36.2523 82.2257 38.896 82.4811 42.2523H69C65.5784 42.2523 62.7743 39.6085 62.5189 36.2523Z" fill="#08FFC6" stroke="#0D5F46"/>
<path d="M65.6685 45.471L80.0841 59.8866C82.8942 62.6967 83.0082 67.182 80.426 70.128L66.0104 55.7124C63.2003 52.9023 63.0863 48.417 65.6685 45.471Z" fill="#08FFC6" stroke="#0D5F46"/>
<defs>
<filter id="filter0_d_81_173" x="0" y="0.752258" width="121" height="121" filterUnits="userSpaceOnUse" color-interpolation-filters="sRGB">
<feFlood flood-opacity="0" result="BackgroundImageFix"/>
<feColorMatrix in="SourceAlpha" type="matrix" values="0 0 0 0 0 0 0 0 0 0 0 0 0 0 0 0 0 0 127 0" result="hardAlpha"/>
<feOffset dy="4"/>
<feGaussianBlur stdDeviation="2"/>
<feComposite in2="hardAlpha" operator="out"/>
<feColorMatrix type="matrix" values="0 0 0 0 0 0 0 0 0 0 0 0 0 0 0 0 0 0 0.25 0"/>
<feBlend mode="normal" in2="BackgroundImageFix" result="effect1_dropShadow_81_173"/>
<feBlend mode="normal" in="SourceGraphic" in2="effect1_dropShadow_81_173" result="shape"/>
</filter>
<filter id="filter1_d_81_173" x="7" y="6.75226" width="108" height="108" filterUnits="userSpaceOnUse" color-interpolation-filters="sRGB">
<feFlood flood-opacity="0" result="BackgroundImageFix"/>
<feColorMatrix in="SourceAlpha" type="matrix" values="0 0 0 0 0 0 0 0 0 0 0 0 0 0 0 0 0 0 127 0" result="hardAlpha"/>
<feOffset dy="4"/>
<feGaussianBlur stdDeviation="2"/>
<feComposite in2="hardAlpha" operator="out"/>
<feColorMatrix type="matrix" values="0 0 0 0 0 0 0 0 0 0 0 0 0 0 0 0 0 0 0.25 0"/>
<feBlend mode="normal" in2="BackgroundImageFix" result="effect1_dropShadow_81_173"/>
<feBlend mode="normal" in="SourceGraphic" in2="effect1_dropShadow_81_173" result="shape"/>
</filter>
</defs>
</svg>
